<?xml version="1.0" standalone="no"?>
<!DOCTYPE svg PUBLIC "-//W3C//DTD SVG 20010904//EN"
 "http://www.w3.org/TR/2001/REC-SVG-20010904/DTD/svg10.dtd">
<svg version="1.0" xmlns="http://www.w3.org/2000/svg"
 width="300.000000pt" height="300.000000pt" viewBox="0 0 300.000000 300.000000"
 preserveAspectRatio="xMidYMid meet">
<metadata>
Created by potrace 1.11, written by Peter Selinger 2001-2013
</metadata>
<g transform="translate(0.000000,300.000000) scale(0.100000,-0.100000)"
fill="#000000" stroke="none">
<path d="M0 1500 l0 -1500 1500 0 1500 0 0 1500 0 1500 -1500 0 -1500 0 0
-1500z m2583 845 c86 -18 172 -64 242 -129 l54 -51 -81 -97 -81 -96 -56 46
c-79 64 -131 85 -228 90 -286 16 -433 -216 -433 -683 0 -237 34 -397 110 -514
115 -177 303 -208 646 -106 20 6 25 -2 58 -101 19 -59 33 -111 30 -115 -8 -13
-157 -56 -259 -75 -67 -12 -128 -15 -240 -12 -134 4 -159 8 -235 34 -292 102
-439 356 -457 789 -23 572 202 942 622 1020 94 18 225 18 308 0z m-1518 -32
c200 -57 322 -176 370 -358 19 -75 19 -242 0 -315 -49 -186 -178 -312 -390
-380 -59 -19 -101 -24 -260 -29 l-190 -6 -3 -358 -2 -357 -160 0 -160 0 0 908
c0 500 3 912 7 916 5 4 168 6 363 4 319 -4 362 -6 425 -25z"/>
<path d="M590 1790 l0 -322 168 4 c190 4 220 13 285 88 51 60 70 132 65 244
-6 148 -57 229 -178 283 -25 12 -78 18 -187 21 l-153 4 0 -322z"/>
</g>
</svg>
